<svg width="158" height="84" viewBox="0 0 158 84" fill="none" xmlns="http://www.w3.org/2000/svg">
<circle opacity="0.12" cx="42" cy="42" r="42" fill="#7772F1"/>
<circle cx="42" cy="42" r="26" fill="#7772F1"/>
<path d="M48.5 41.134C49.1667 41.5189 49.1667 42.4811 48.5 42.866L39.5 48.0622C38.8333 48.4471 38 47.966 38 47.1962L38 36.8038C38 36.034 38.8333 35.5529 39.5 35.9378L48.5 41.134Z" fill="white"/>
<path d="M87.5404 43.928V48H85.3884V36.432H89.1564C89.9298 36.432 90.5991 36.5227 91.1644 36.704C91.7298 36.8853 92.1964 37.1387 92.5644 37.464C92.9324 37.7893 93.2044 38.1787 93.3804 38.632C93.5564 39.0853 93.6444 39.5813 93.6444 40.12C93.6444 40.68 93.5511 41.1947 93.3644 41.664C93.1778 42.128 92.8978 42.528 92.5244 42.864C92.1511 43.2 91.6844 43.4613 91.1244 43.648C90.5644 43.8347 89.9084 43.928 89.1564 43.928H87.5404ZM87.5404 42.248H89.1564C89.5511 42.248 89.8951 42.2 90.1884 42.104C90.4818 42.0027 90.7244 41.8613 90.9164 41.68C91.1084 41.4933 91.2524 41.2693 91.3484 41.008C91.4444 40.7413 91.4924 40.4453 91.4924 40.12C91.4924 39.8107 91.4444 39.5307 91.3484 39.28C91.2524 39.0293 91.1084 38.816 90.9164 38.64C90.7244 38.464 90.4818 38.3307 90.1884 38.24C89.8951 38.144 89.5511 38.096 89.1564 38.096H87.5404V42.248ZM97.3084 36.112V48H95.3324V36.112H97.3084ZM105.98 48H105.092C104.906 48 104.759 47.9733 104.652 47.92C104.546 47.8613 104.466 47.7467 104.412 47.576L104.236 46.992C104.028 47.1787 103.823 47.344 103.62 47.488C103.423 47.6267 103.218 47.744 103.004 47.84C102.791 47.936 102.564 48.008 102.324 48.056C102.084 48.104 101.818 48.128 101.524 48.128C101.178 48.128 100.858 48.0827 100.564 47.992C100.271 47.896 100.018 47.7547 99.8042 47.568C99.5962 47.3813 99.4335 47.1493 99.3162 46.872C99.1989 46.5947 99.1402 46.272 99.1402 45.904C99.1402 45.5947 99.2202 45.2907 99.3802 44.992C99.5455 44.688 99.8175 44.416 100.196 44.176C100.575 43.9307 101.079 43.728 101.708 43.568C102.338 43.408 103.119 43.3173 104.052 43.296V42.816C104.052 42.2667 103.935 41.8613 103.7 41.6C103.471 41.3333 103.135 41.2 102.692 41.2C102.372 41.2 102.106 41.2373 101.892 41.312C101.679 41.3867 101.492 41.472 101.332 41.568C101.178 41.6587 101.034 41.7413 100.9 41.816C100.767 41.8907 100.62 41.928 100.46 41.928C100.327 41.928 100.212 41.8933 100.116 41.824C100.02 41.7547 99.9429 41.6693 99.8842 41.568L99.5242 40.936C100.468 40.072 101.607 39.64 102.94 39.64C103.42 39.64 103.847 39.72 104.22 39.88C104.599 40.0347 104.919 40.2533 105.18 40.536C105.442 40.8133 105.639 41.1467 105.772 41.536C105.911 41.9253 105.98 42.352 105.98 42.816V48ZM102.14 46.768C102.343 46.768 102.53 46.7493 102.7 46.712C102.871 46.6747 103.031 46.6187 103.18 46.544C103.335 46.4693 103.482 46.3787 103.62 46.272C103.764 46.16 103.908 46.0293 104.052 45.88V44.496C103.476 44.5227 102.994 44.5733 102.604 44.648C102.22 44.7173 101.911 44.808 101.676 44.92C101.442 45.032 101.274 45.1627 101.172 45.312C101.076 45.4613 101.028 45.624 101.028 45.8C101.028 46.1467 101.13 46.3947 101.332 46.544C101.54 46.6933 101.81 46.768 102.14 46.768ZM110.554 50.256C110.495 50.3947 110.418 50.4987 110.322 50.568C110.231 50.6427 110.09 50.68 109.898 50.68H108.426L109.962 47.392L106.642 39.792H108.37C108.53 39.792 108.653 39.8293 108.738 39.904C108.823 39.9787 108.887 40.064 108.93 40.16L110.682 44.416C110.741 44.5547 110.791 44.6987 110.834 44.848C110.877 44.9973 110.914 45.1467 110.946 45.296C110.989 45.1413 111.034 44.992 111.082 44.848C111.135 44.704 111.191 44.5573 111.25 44.408L112.898 40.16C112.941 40.0533 113.01 39.9653 113.106 39.896C113.207 39.8267 113.319 39.792 113.442 39.792H115.026L110.554 50.256ZM123.379 48H121.587L118.323 39.792H119.963C120.107 39.792 120.227 39.8267 120.323 39.896C120.424 39.9653 120.494 40.0533 120.531 40.16L122.115 44.544C122.206 44.8 122.28 45.0507 122.339 45.296C122.403 45.5413 122.459 45.7867 122.507 46.032C122.555 45.7867 122.608 45.5413 122.667 45.296C122.731 45.0507 122.811 44.8 122.907 44.544L124.531 40.16C124.568 40.0533 124.635 39.9653 124.731 39.896C124.827 39.8267 124.942 39.792 125.075 39.792H126.635L123.379 48ZM129.902 39.792V48H127.926V39.792H129.902ZM130.198 37.4C130.198 37.5707 130.164 37.7307 130.094 37.88C130.025 38.0293 129.932 38.16 129.814 38.272C129.702 38.384 129.569 38.4747 129.414 38.544C129.26 38.608 129.094 38.64 128.918 38.64C128.748 38.64 128.585 38.608 128.43 38.544C128.281 38.4747 128.15 38.384 128.038 38.272C127.926 38.16 127.836 38.0293 127.766 37.88C127.702 37.7307 127.67 37.5707 127.67 37.4C127.67 37.224 127.702 37.0587 127.766 36.904C127.836 36.7493 127.926 36.616 128.038 36.504C128.15 36.392 128.281 36.304 128.43 36.24C128.585 36.1707 128.748 36.136 128.918 36.136C129.094 36.136 129.26 36.1707 129.414 36.24C129.569 36.304 129.702 36.392 129.814 36.504C129.932 36.616 130.025 36.7493 130.094 36.904C130.164 37.0587 130.198 37.224 130.198 37.4ZM137.918 48C137.662 48 137.494 47.88 137.414 47.64L137.254 46.848C137.083 47.04 136.905 47.2133 136.718 47.368C136.531 47.5227 136.329 47.656 136.11 47.768C135.897 47.88 135.665 47.9653 135.414 48.024C135.169 48.088 134.902 48.12 134.614 48.12C134.166 48.12 133.755 48.0267 133.382 47.84C133.009 47.6533 132.686 47.384 132.414 47.032C132.147 46.6747 131.939 46.2347 131.79 45.712C131.646 45.1893 131.574 44.592 131.574 43.92C131.574 43.312 131.657 42.7467 131.822 42.224C131.987 41.7013 132.225 41.248 132.534 40.864C132.843 40.48 133.214 40.1813 133.646 39.968C134.078 39.7493 134.563 39.64 135.102 39.64C135.561 39.64 135.953 39.7147 136.278 39.864C136.603 40.008 136.894 40.2027 137.15 40.448V36.112H139.126V48H137.918ZM135.286 46.552C135.697 46.552 136.046 46.4667 136.334 46.296C136.622 46.1253 136.894 45.8827 137.15 45.568V41.888C136.926 41.616 136.681 41.424 136.414 41.312C136.153 41.2 135.87 41.144 135.566 41.144C135.267 41.144 134.995 41.2 134.75 41.312C134.51 41.424 134.305 41.5947 134.134 41.824C133.969 42.048 133.841 42.336 133.75 42.688C133.659 43.0347 133.614 43.4453 133.614 43.92C133.614 44.4 133.651 44.808 133.726 45.144C133.806 45.4747 133.918 45.7467 134.062 45.96C134.206 46.168 134.382 46.32 134.59 46.416C134.798 46.5067 135.03 46.552 135.286 46.552ZM144.659 39.664C145.176 39.664 145.651 39.7467 146.083 39.912C146.52 40.0773 146.896 40.32 147.211 40.64C147.526 40.9547 147.771 41.344 147.947 41.808C148.123 42.2667 148.211 42.792 148.211 43.384C148.211 43.5333 148.203 43.6587 148.187 43.76C148.176 43.856 148.152 43.9333 148.115 43.992C148.083 44.0453 148.038 44.0853 147.979 44.112C147.92 44.1333 147.846 44.144 147.755 44.144H142.683C142.742 44.9867 142.968 45.6053 143.363 46C143.758 46.3947 144.28 46.592 144.931 46.592C145.251 46.592 145.526 46.5547 145.755 46.48C145.99 46.4053 146.192 46.3227 146.363 46.232C146.539 46.1413 146.691 46.0587 146.819 45.984C146.952 45.9093 147.08 45.872 147.203 45.872C147.283 45.872 147.352 45.888 147.411 45.92C147.47 45.952 147.52 45.9973 147.563 46.056L148.139 46.776C147.92 47.032 147.675 47.248 147.403 47.424C147.131 47.5947 146.846 47.7333 146.547 47.84C146.254 47.9413 145.952 48.0133 145.643 48.056C145.339 48.0987 145.043 48.12 144.755 48.12C144.184 48.12 143.654 48.0267 143.163 47.84C142.672 47.648 142.246 47.368 141.883 47C141.52 46.6267 141.235 46.168 141.027 45.624C140.819 45.0747 140.715 44.44 140.715 43.72C140.715 43.16 140.806 42.6347 140.987 42.144C141.168 41.648 141.427 41.2187 141.763 40.856C142.104 40.488 142.518 40.1973 143.003 39.984C143.494 39.7707 144.046 39.664 144.659 39.664ZM144.699 41.08C144.123 41.08 143.672 41.2427 143.347 41.568C143.022 41.8933 142.814 42.3547 142.723 42.952H146.435C146.435 42.696 146.4 42.456 146.331 42.232C146.262 42.0027 146.155 41.8027 146.011 41.632C145.867 41.4613 145.686 41.328 145.467 41.232C145.248 41.1307 144.992 41.08 144.699 41.08ZM153.318 39.664C153.931 39.664 154.486 39.7627 154.982 39.96C155.483 40.1573 155.91 40.4373 156.262 40.8C156.614 41.1627 156.886 41.6053 157.078 42.128C157.27 42.6507 157.366 43.2347 157.366 43.88C157.366 44.5307 157.27 45.1173 157.078 45.64C156.886 46.1627 156.614 46.608 156.262 46.976C155.91 47.344 155.483 47.6267 154.982 47.824C154.486 48.0213 153.931 48.12 153.318 48.12C152.704 48.12 152.147 48.0213 151.646 47.824C151.144 47.6267 150.715 47.344 150.358 46.976C150.006 46.608 149.731 46.1627 149.534 45.64C149.342 45.1173 149.246 44.5307 149.246 43.88C149.246 43.2347 149.342 42.6507 149.534 42.128C149.731 41.6053 150.006 41.1627 150.358 40.8C150.715 40.4373 151.144 40.1573 151.646 39.96C152.147 39.7627 152.704 39.664 153.318 39.664ZM153.318 46.6C154 46.6 154.504 46.3707 154.83 45.912C155.16 45.4533 155.326 44.7813 155.326 43.896C155.326 43.0107 155.16 42.336 154.83 41.872C154.504 41.408 154 41.176 153.318 41.176C152.624 41.176 152.112 41.4107 151.782 41.88C151.451 42.344 151.286 43.016 151.286 43.896C151.286 44.776 151.451 45.448 151.782 45.912C152.112 46.3707 152.624 46.6 153.318 46.6Z" fill="white"/>
</svg>
