<svg width="221" height="25" viewBox="0 0 221 25" fill="none" xmlns="http://www.w3.org/2000/svg">
<path d="M21.5 5.70325C20.798 6.10835 19.3895 6.66044 18.5615 6.81968C18.5372 6.8258 18.5174 6.83368 18.494 6.8398C17.7623 6.13809 16.7597 5.70325 15.65 5.70325C13.4135 5.70325 11.6 7.46626 11.6 9.6405C11.6 9.75512 11.5901 9.96598 11.6 10.078C8.5823 10.078 6.2855 8.54157 4.6385 6.57819C4.4594 7.01567 4.3811 7.70687 4.3811 8.35608C4.3811 9.58188 5.3666 10.7858 6.9011 11.5321C6.6185 11.603 6.3071 11.6538 5.9831 11.6538C5.4602 11.6538 4.9067 11.5199 4.4 11.1139C4.4 11.1288 4.4 11.1428 4.4 11.1585C4.4 12.8717 6.2702 14.038 7.9334 14.3626C7.5959 14.5559 6.9155 14.5752 6.5834 14.5752C6.3494 14.5752 5.5214 14.4711 5.3 14.4308C5.7626 15.8351 7.4312 16.6243 9.0215 16.6523C7.7777 17.6008 6.9146 17.9525 4.3676 17.9525H3.5C5.1092 18.9552 7.1585 19.7032 9.2123 19.7032C15.8993 19.7032 19.7 14.7484 19.7 10.078C19.7 10.0027 19.6982 9.84524 19.6955 9.68687C19.6955 9.67112 19.7 9.65625 19.7 9.6405C19.7 9.61688 19.6928 9.59413 19.6928 9.57051C19.6901 9.45151 19.6874 9.34039 19.6847 9.28265C20.3957 8.78393 21.0122 8.16184 21.5 7.45314C20.8475 7.73487 20.1473 7.92386 19.412 8.0096C20.1626 7.57213 21.2291 6.5292 21.5 5.70325Z" fill="black"/>
<path fill-rule="evenodd" clip-rule="evenodd" d="M53.5 8.70325C53.5 5.94225 55.739 3.70325 58.5 3.70325H66.5C69.261 3.70325 71.5 5.94225 71.5 8.70325V16.7032C71.5 19.4642 69.261 21.7032 66.5 21.7032H58.5C55.739 21.7032 53.5 19.4642 53.5 16.7032V8.70325ZM69.5 6.70325C69.5 6.15125 69.052 5.70325 68.5 5.70325C67.948 5.70325 67.5 6.15125 67.5 6.70325C67.5 7.25525 67.948 7.70325 68.5 7.70325C69.052 7.70325 69.5 7.25525 69.5 6.70325ZM62.5 7.70325C65.261 7.70325 67.5 9.94225 67.5 12.7032C67.5 15.4642 65.261 17.7032 62.5 17.7032C59.739 17.7032 57.5 15.4642 57.5 12.7032C57.5 9.94225 59.739 7.70325 62.5 7.70325ZM59.5 12.7032C59.5 11.0464 60.8431 9.70325 62.5 9.70325C64.1569 9.70325 65.5 11.0464 65.5 12.7032C65.5 14.3601 64.1569 15.7032 62.5 15.7032C60.8431 15.7032 59.5 14.3601 59.5 12.7032Z" fill="black"/>
<path d="M116.66 5.21323C112.568 4.53325 108.392 4.53325 104.3 5.21323C101.96 5.70323 100.5 7.21323 100.5 9.18323V16.1832C100.5 18.1832 101.96 19.6732 104.34 20.1832C106.376 20.5259 108.436 20.6999 110.5 20.7032C112.57 20.7028 114.637 20.5322 116.68 20.1932C119 19.7532 120.5 18.1932 120.5 16.1932V9.19323C120.5 7.20323 119 5.64323 116.66 5.21323ZM113.76 13.1532L108.76 16.1532C108.682 16.2009 108.592 16.2252 108.5 16.2232C108.413 16.2225 108.328 16.202 108.25 16.1632C108.171 16.1155 108.107 16.0478 108.063 15.967C108.019 15.8862 107.997 15.7952 108 15.7032V9.70323C108.001 9.61467 108.024 9.52777 108.068 9.45076C108.112 9.37376 108.174 9.30921 108.25 9.26323C108.328 9.22121 108.416 9.19923 108.505 9.19923C108.594 9.19923 108.682 9.22121 108.76 9.26323L113.76 12.2632C113.832 12.3093 113.892 12.3729 113.933 12.448C113.974 12.5232 113.996 12.6075 113.996 12.6932C113.996 12.7789 113.974 12.8633 113.933 12.9384C113.892 13.0136 113.832 13.0771 113.76 13.1232V13.1532Z" fill="black"/>
<path fill-rule="evenodd" clip-rule="evenodd" d="M158.5 2.70325C153 2.70325 148.5 7.20325 148.5 12.7032C148.5 18.2032 153 22.7032 158.5 22.7032C161.008 22.7032 163.301 21.7736 165.062 20.2345C165.266 20.1368 165.434 19.9689 165.531 19.7657C167.352 17.9532 168.5 15.4611 168.5 12.7032C168.5 7.20325 164 2.70325 158.5 2.70325ZM159.531 4.76575C160.801 4.93372 161.988 5.41419 163 6.1095C161.781 7.17981 159.812 9.38684 159.562 12.672C159.223 12.6876 158.867 12.7032 158.5 12.7032C158.245 12.7032 157.998 12.6927 157.758 12.6825C157.671 12.6788 157.585 12.6751 157.5 12.672C157.504 9.922 158.035 7.922 158.562 6.6095C159.07 5.34778 159.496 4.80872 159.531 4.76575ZM156.719 5.8595C156.875 5.47669 157.035 5.12512 157.188 4.82825C155.777 5.06653 154.465 5.672 153.406 6.547C153.609 7.05481 154.312 9.01575 154.469 12.297C154.785 12.3634 155.141 12.4337 155.5 12.4845C155.527 9.56653 156.113 7.35559 156.719 5.8595ZM164.5 7.45325C165.332 8.40637 165.941 9.56653 166.25 10.8282C166.098 10.9611 165.738 11.2384 164.781 11.6407C164.035 11.9572 162.961 12.2462 161.594 12.4532C161.93 9.77356 163.645 8.13294 164.5 7.45325ZM152.438 11.7032C152.32 10.1212 152.086 9.03137 151.875 8.26575C151.359 9.03528 150.977 9.90637 150.75 10.8282C150.902 10.9611 151.262 11.2384 152.219 11.6407C152.251 11.6547 152.289 11.6635 152.329 11.6725L152.329 11.6725L152.329 11.6725C152.367 11.6811 152.405 11.6898 152.438 11.7032ZM150.5 13.047C150.773 13.1993 151.078 13.3322 151.438 13.4845C151.738 13.6095 152.102 13.7423 152.469 13.8595C152.426 15.1954 152.168 16.3673 151.906 17.2032C151.09 16.0079 150.566 14.5822 150.5 13.047ZM164.375 18.1095C165.613 16.7618 166.418 14.9884 166.5 13.047C166.227 13.1993 165.922 13.3322 165.562 13.4845C164.609 13.8868 163.281 14.2579 161.625 14.4845C161.969 16.5509 163.527 17.6564 164.375 18.1095ZM154.469 14.3595C154.809 14.422 155.184 14.4689 155.562 14.5157C155.742 16.6525 156.23 18.34 156.719 19.547C156.875 19.9298 157.035 20.2814 157.188 20.5782C155.793 20.3439 154.492 19.7501 153.438 18.8907C153.77 18.0822 154.336 16.4298 154.469 14.3595ZM157.833 14.6827C157.753 14.6789 157.673 14.6752 157.594 14.672C157.77 16.4493 158.168 17.8165 158.562 18.797C159.07 20.0587 159.496 20.5978 159.531 20.6407C160.707 20.4845 161.82 20.0665 162.781 19.4532C161.566 18.6407 159.984 17.1329 159.625 14.672C159.266 14.6876 158.887 14.7032 158.5 14.7032C158.272 14.7032 158.05 14.6929 157.833 14.6827Z" fill="black"/>
<path fill-rule="evenodd" clip-rule="evenodd" d="M201.5 3.70325H215.5C216.605 3.70325 217.5 4.59825 217.5 5.70325V19.7032C217.5 20.8082 216.605 21.7032 215.5 21.7032H201.5C200.395 21.7032 199.5 20.8082 199.5 19.7032V5.70325C199.5 4.59825 200.395 3.70325 201.5 3.70325ZM202.977 17.7032H205.5V10.7032H202.977V17.7032ZM204.194 9.42025C203.423 9.42025 202.908 8.90625 202.908 8.22025C202.908 7.53425 203.422 7.02025 204.279 7.02025C205.05 7.02025 205.565 7.53425 205.565 8.22025C205.565 8.90625 205.051 9.42025 204.194 9.42025ZM212.058 17.7032H214.5V13.8772C214.5 11.6802 213.523 10.7032 212.302 10.7032C211.081 10.7032 210.43 11.1102 210.105 11.6802V10.7032H207.582V17.7032H210.105V13.8772C210.105 12.7382 210.919 12.5752 211.163 12.5752C211.407 12.5752 212.058 12.8192 212.058 13.8772V17.7032Z" fill="black"/>
</svg>
